<?xml version="1.0" encoding="UTF-8"?>
<svg width="76px" height="76px" viewBox="0 0 76 76" version="1.1" xmlns="http://www.w3.org/2000/svg" xmlns:xlink="http://www.w3.org/1999/xlink">
    <title>swap</title>
    <g id="page-1" stroke="none" stroke-width="1" fill="none" fill-rule="evenodd">
        <g id="Swap-in-progress" transform="translate(-1022.000000, -501.000000)">
            <g id="edit-14" transform="translate(710.000000, 358.000000)">
                <g id="edit-10" transform="translate(312.000000, 143.000000)">
                    <g id="arrow" transform="translate(22.000000, 22.000000)" fill="#FFFFFF" fill-rule="nonzero">
                        <rect id="rectangle" opacity="0" x="0" y="0" width="32" height="32"></rect>
                        <g transform="translate(1.811739, 2.215327)">
                            <rect id="rectangle" opacity="0" x="1.16363636" y="3.35171704" width="20.8662317" height="20.8662317"></rect>
                            <g>
                                <rect id="rectangle" opacity="0" x="0" y="0" width="27.9272727" height="27.9272727"></rect>
                                <path d="M9.87283636,14.9422091 C10.4420182,15.7359 11.055,16.5888 11.8154727,17.3989636 C10.0817455,19.3941 7.55517273,21.2093727 2.59669091,21.2093727 L2.59669091,17.5788273 C6.528,17.5788273 8.1204,16.2751909 9.52879091,14.4649364 C9.64216364,14.6210455 9.75638182,14.7796636 9.87283636,14.9422091 Z M13.7536364,12.1587 C14.1088636,12.6538364 14.4426,13.1182909 14.7880364,13.5447273 C15.9858545,12.2232 17.49,11.2801091 20.3665091,11.0966182 L19.4829,13.3341545 C19.4461157,13.4267069 19.4758701,13.5324282 19.5555273,13.5922091 C19.593973,13.6210271 19.6406803,13.6366918 19.6887273,13.6368818 C19.7374235,13.6368818 19.7847492,13.6207562 19.8233455,13.5910636 L25.2442909,9.42267273 C25.2987545,9.38132727 25.3305818,9.31625455 25.3305818,9.24758182 C25.3305818,9.17890909 25.2990273,9.11378182 25.2442909,9.07246364 L19.8230455,4.90431818 C19.7440364,4.84371818 19.6342636,4.84314545 19.5552273,4.9032 C19.4755926,4.96298467 19.4458511,5.0686886 19.4826273,5.16122727 L20.3908091,7.46078182 C16.4983091,7.66464545 14.2029818,9.00766364 12.5851364,10.6020545 C13.0183091,11.1348818 13.3992273,11.6646545 13.7536364,12.1587 L13.7536364,12.1587 Z M19.8230455,14.3361818 C19.7844148,14.306573 19.7371269,14.2904749 19.6884545,14.2903636 C19.6415455,14.2903636 19.5946364,14.3057455 19.5552273,14.3350909 C19.4755926,14.3948756 19.4458511,14.5005795 19.4826273,14.5931182 L20.3662636,16.8306545 C16.2494727,16.5684 14.9424818,14.7503455 13.3235455,12.4927091 C11.4783818,9.91977273 9.18220909,6.7179 2.59669091,6.7179 L2.59669091,10.3484455 C7.31806364,10.3484455 8.6664,12.2279455 10.3733182,14.6084727 C12.1547727,17.0926091 14.3518364,20.1503727 20.3911091,20.4667909 L19.4829273,22.7663182 C19.4461371,22.8588645 19.4758799,22.9645845 19.5555273,23.0243727 C19.6345364,23.0844 19.7443091,23.0838273 19.8233455,23.0232545 L25.2445909,18.8548091 C25.2990273,18.8134909 25.3308818,18.7484182 25.3308818,18.6797182 C25.3308818,18.6110182 25.2993273,18.5459455 25.2445909,18.5046273 L19.8230455,14.3361818 Z" id="shape"></path>
                            </g>
                        </g>
                    </g>
                </g>
            </g>
        </g>
    </g>
</svg>