<?xml version="1.0" encoding="UTF-8"?>
<svg width="32px" height="32px" viewBox="0 0 32 32" version="1.1" xmlns="http://www.w3.org/2000/svg" xmlns:xlink="http://www.w3.org/1999/xlink">
    <title>wait</title>
    <g id="page-1" stroke="none" stroke-width="1" fill="none" fill-rule="evenodd">
        <g id="56.user-token-4" transform="translate(-1541.000000, -181.000000)">
            <g id="edit-4" transform="translate(1519.000000, 159.000000)">
                <g id="edit-21" transform="translate(22.000000, 22.000000)">
                    <circle id="circle" fill="#7868F4" cx="16" cy="16" r="16"></circle>
                    <g id="reload-time" transform="translate(6.000000, 6.000000)" fill="#FFFFFF" fill-rule="nonzero">
                        <rect id="rectangle" opacity="0" x="0" y="0" width="19" height="19"></rect>
                        <path d="M10.4628417,5.55349124 L9.54005283,5.55349124 C9.45563971,5.55349124 9.38657442,5.62046796 9.38657442,5.70232839 L9.38657442,10.8241868 C9.38657442,10.8725589 9.40959619,10.91721 9.44988427,10.945117 L12.6211318,13.1906975 C12.6901971,13.2390695 12.7861211,13.2260463 12.8360016,13.1590696 L13.3846869,12.4334885 C13.4364859,12.3646513 13.421138,12.2716281 13.3520727,12.2251165 L10.6163202,10.3069777 L10.6163202,5.70232839 C10.6163202,5.62046796 10.5472549,5.55349124 10.4628417,5.55349124 Z M14.679661,6.95256044 L17.6878377,7.6651183 C17.7837617,7.68744387 17.8777673,7.61674622 17.8777673,7.52186254 L17.8931151,4.51721259 C17.8931151,4.39256148 17.7453921,4.32186383 17.6456312,4.40000333 L14.6221066,6.69023497 C14.5204271,6.76837447 14.5549598,6.92279302 14.679661,6.95256044 L14.679661,6.95256044 Z M17.8969521,12.5544187 L16.8091739,12.1916281 C16.7305162,12.1655816 16.6441846,12.2046514 16.6154074,12.2809304 C16.5789562,12.3758141 16.5405866,12.4688373 16.5002986,12.5618605 C16.1588091,13.345116 15.6695967,14.050232 15.0441722,14.6548829 C14.4206662,15.2595338 13.6935622,15.7358127 12.8858821,16.0669754 C12.0494248,16.4093008 11.1611685,16.5841845 10.244135,16.5841845 C9.32710154,16.5841845 8.43884527,16.4111613 7.60238795,16.0669754 C6.79470784,15.7358127 6.06760389,15.2595338 5.44409786,14.6548829 C4.82059183,14.050232 4.33137941,13.345116 3.98797148,12.5618605 C3.63688963,11.7525585 3.45847098,10.889303 3.45847098,10.0000021 C3.45847098,9.11069911 3.63688963,8.24744364 3.99180844,7.43628118 C4.33329789,6.65302568 4.82251031,5.94790969 5.44793482,5.34325877 C6.07144085,4.73860785 6.7985448,4.26232897 7.60622491,3.93116631 C8.43884527,3.58698041 9.32902002,3.41395722 10.2460535,3.41395722 C11.163087,3.41395722 12.0513433,3.58698041 12.8878006,3.93116631 C13.6954807,4.26232897 14.4225846,4.73860785 15.0460907,5.34325877 C15.2417756,5.5348866 15.4259497,5.73395629 15.594776,5.94418876 L16.742027,5.07349144 C15.2321832,3.20186428 12.8820451,1.99814384 10.2422165,2.00000215 C5.64553827,2.00186477 1.9543826,5.62232842 2.00042612,10.0818615 C2.04646964,14.4632551 5.72035899,18.0000021 10.2460535,18.0000021 C13.804834,18.0000021 16.8360326,15.8120918 17.9909576,12.7479069 C18.0197348,12.6697674 17.9775282,12.5823256 17.8969521,12.5544187 Z" id="shape"></path>
                    </g>
                </g>
            </g>
        </g>
    </g>
</svg>